# xmcd
#
# Track frame offsets: 
#        150
#        19816
#        36485
#        63392
#        84575
#        103424
#        128533
#
# Disc length: 1982 seconds
#
# Revision: 0
# Processed by: cddbd v1.5.2PL0 Copyright (c) Steve Scherf et al.
# Submitted via: ExactAudioCopy v1.2
#
DISCID=5b07bc07
DTITLE=Greg Sover - Jubilee
DYEAR=2018
DGENRE=Blues
TTITLE0=Emotional
TTITLE1=Jubilee
TTITLE2=Hand on My Heart
TTITLE3=As the Years Go Passing By
TTITLE4=I Give My Love
TTITLE5=Temptation (Live)
TTITLE6=Hand on My Heart (Short Edit)
EXTD=
EXTT0=
EXTT1=
EXTT2=
EXTT3=
EXTT4=
EXTT5=
EXTT6=
PLAYORDER=
